#N canvas 5280 540 1440 1529 10;
#X obj 49 102 oscparse;
#X obj 49 78 netreceive -u -b;
#X obj 49 126 list trim;
#X floatatom 49 171 5 0 0 0 - - - 0;
#X obj 49 150 route val;
#X msg 49 52 listen 6667;
#X floatatom 49 264 5 0 0 0 - - - 0;
#X obj 49 322 osc~;
#X obj 49 344 dac~;
#X text 57 199 Scale;
#X obj 49 220 * 200;
#X obj 49 242 + 500;
#X text 47 29 Receive;
#X text 57 299 Make sound;
#X connect 0 0 2 0;
#X connect 1 0 0 0;
#X connect 2 0 4 0;
#X connect 3 0 10 0;
#X connect 4 0 3 0;
#X connect 5 0 1 0;
#X connect 6 0 7 0;
#X connect 7 0 8 0;
#X connect 10 0 11 0;
#X connect 11 0 6 0;
